<svg width="120" height="26" viewBox="0 0 120 26" fill="none" xmlns="http://www.w3.org/2000/svg">
<path d="M8.51926 8.99836C8.44153 8.67043 8.45994 8.3237 8.5029 8.14406C8.61131 7.62605 8.95699 7.04747 9.96131 7.04747C10.894 7.04747 11.4422 7.63858 11.4422 8.52422V9.531H15.4166V8.38845C15.4145 4.8501 12.2911 4.28613 10.039 4.28613C7.20812 4.28613 4.89675 5.24487 4.47334 7.90177C4.35675 8.63074 4.33834 9.27199 4.50607 10.095C5.19539 13.4203 10.8572 14.3832 11.6815 16.4865C11.835 16.8771 11.79 17.3805 11.7122 17.6876C11.5813 18.2348 11.2213 18.7863 10.1556 18.7863C9.15949 18.7863 8.56426 18.1952 8.56426 17.3053L8.55813 15.7409H4.28516V16.9837C4.28516 20.6202 7.0813 21.7147 10.0759 21.7147C13.0704 21.7147 15.3184 20.7121 15.7029 17.9905C15.8952 16.5868 15.75 15.674 15.6866 15.3273C15.0136 11.9143 8.97335 10.9012 8.51926 8.99836ZM60.3247 9.03805C60.2531 8.71638 60.2735 8.37591 60.3104 8.19628C60.4249 7.67618 60.7665 7.10804 61.7544 7.10804C62.6749 7.10804 63.2129 7.69289 63.2129 8.57226V9.56651H67.1402V8.43231C67.1402 4.92738 64.0638 4.37595 61.8342 4.37595C59.0278 4.37595 56.7369 5.32007 56.3176 7.95816C56.2072 8.6767 56.1785 9.31377 56.3565 10.1263C57.0397 13.414 62.6442 14.3686 63.4583 16.449C63.6015 16.8437 63.5606 17.345 63.487 17.6416C63.3642 18.1826 63.0083 18.7278 61.9508 18.7278C60.9588 18.7278 60.3635 18.145 60.3635 17.2677V15.7074H56.1356V16.9482C56.1356 20.5429 58.8928 21.6291 61.8649 21.6291C64.837 21.6291 67.0604 20.6369 67.4367 17.9445C67.6167 16.5534 67.4817 15.649 67.4081 15.3064C66.7495 11.9331 60.7747 10.92 60.3226 9.03596L60.3247 9.03805ZM96.4966 17.9006L92.7452 4.80414H86.8339V20.9022H90.7448L90.5177 7.38584L94.5473 20.9022H100.217V4.80414H96.2818L96.4987 17.9006H96.4966ZM21.3402 4.80414L18.3886 21.0714H22.6923L24.9157 6.01353L27.0859 21.0714H31.3589L28.4196 4.80414H21.3382H21.3402ZM45.401 4.80414L43.3903 17.5205L41.3816 4.80414H34.8832L34.5396 21.0714H38.52L38.6285 6.01353L41.3673 21.0714H45.4071L48.148 6.01353L48.2564 21.0714H52.2471L51.8912 4.80414H45.401ZM82.4177 4.80414H78.3881V16.8375C78.3943 17.0463 78.3881 17.2824 78.3534 17.4557C78.2695 17.8589 77.9341 18.638 76.8234 18.638C75.7127 18.638 75.3813 17.8609 75.3036 17.4557C75.2627 17.2824 75.2586 17.0463 75.2627 16.8375V4.80414H71.2352V16.4636C71.2311 16.7644 71.2536 17.3784 71.2699 17.5393C71.5481 20.5784 73.8922 21.5643 76.8213 21.5643C79.7504 21.5643 82.0986 20.5784 82.3829 17.5393C82.4054 17.3784 82.4341 16.7644 82.4177 16.4636V4.80414ZM110.078 11.9393V14.3122H111.711V16.6662C111.715 16.8771 111.705 17.1027 111.67 17.2845C111.604 17.7231 111.197 18.4709 110.038 18.4709C108.878 18.4709 108.485 17.7231 108.416 17.2845C108.387 17.1027 108.375 16.8751 108.375 16.6662V9.2323C108.375 8.96912 108.393 8.68087 108.446 8.46364C108.526 8.06678 108.87 7.28558 110.029 7.28558C111.248 7.28558 111.551 8.10855 111.621 8.46364C111.666 8.69758 111.67 9.09027 111.67 9.09027V9.99261H115.681V9.45998C115.681 9.45998 115.699 8.90228 115.65 8.38427C115.35 5.3326 112.887 4.36759 110.064 4.36759C107.241 4.36759 104.824 5.34095 104.472 8.38427C104.439 8.66207 104.392 9.16338 104.392 9.45998V16.2986C104.392 16.5973 104.402 16.827 104.456 17.3722C104.717 20.3403 107.235 21.3909 110.052 21.3909C112.868 21.3909 115.386 20.3382 115.654 17.3722C115.701 16.827 115.708 16.5973 115.714 16.2986V11.9393H110.078Z" fill="white"/>
</svg>
